<svg xmlns="http://www.w3.org/2000/svg" viewBox="0 0 56.944 56.944">
  <defs>
    <style>
      .cls-1 {
        fill: #fff;
      }
    </style>
  </defs>
  <path id="github-square-brands" class="cls-1" d="M50.843,32H6.1A6.1,6.1,0,0,0,0,38.1V82.843a6.1,6.1,0,0,0,6.1,6.1H50.843a6.1,6.1,0,0,0,6.1-6.1V38.1A6.1,6.1,0,0,0,50.843,32Zm-15.6,48.771c-1.068.191-1.462-.47-1.462-1.017,0-.686.025-4.195.025-7.029a4.952,4.952,0,0,0-1.436-3.9c4.7-.521,9.66-1.169,9.66-9.292a6.526,6.526,0,0,0-2.174-4.957,7.95,7.95,0,0,0-.216-5.72c-1.767-.547-5.809,2.275-5.809,2.275a20,20,0,0,0-10.575,0s-4.042-2.822-5.809-2.275a7.888,7.888,0,0,0-.216,5.72,6.384,6.384,0,0,0-1.983,4.957c0,8.084,4.741,8.77,9.444,9.292a4.607,4.607,0,0,0-1.347,2.834c-1.208.547-4.3,1.487-6.139-1.767a4.428,4.428,0,0,0-3.241-2.174c-2.059-.025-.14,1.3-.14,1.3,1.373.636,2.339,3.076,2.339,3.076,1.233,3.775,7.131,2.5,7.131,2.5,0,1.767.025,4.639.025,5.161,0,.547-.381,1.208-1.462,1.017A21.088,21.088,0,0,1,7.6,60.65,20.171,20.171,0,0,1,28.192,40.122c11.668,0,21.125,8.859,21.125,20.528A20.894,20.894,0,0,1,35.247,80.771ZM22.778,73c-.242.051-.47-.051-.5-.216-.025-.191.14-.356.381-.407.242-.025.47.076.5.242S23.032,72.954,22.778,73ZM21.57,72.89c0,.165-.191.305-.445.305-.28.025-.47-.114-.47-.305,0-.165.191-.305.445-.305C21.341,72.56,21.57,72.7,21.57,72.89Zm-1.741-.14c-.051.165-.305.242-.521.165-.242-.051-.407-.242-.356-.407s.305-.242.521-.191C19.727,72.395,19.892,72.585,19.829,72.751Zm-1.563-.686c-.114.14-.356.114-.547-.076-.191-.165-.242-.407-.114-.521.114-.14.356-.114.547.076C18.316,71.708,18.38,71.962,18.265,72.064Zm-1.157-1.157c-.114.076-.33,0-.47-.191s-.14-.407,0-.5c.14-.114.356-.025.47.165A.372.372,0,0,1,17.109,70.907Zm-.826-1.233c-.114.114-.305.051-.445-.076-.14-.165-.165-.356-.051-.445.114-.114.305-.051.445.076C16.371,69.395,16.4,69.586,16.282,69.675Zm-.852-.941a.239.239,0,0,1-.356.051c-.165-.076-.242-.216-.191-.33a.3.3,0,0,1,.356-.051C15.405,68.492,15.482,68.632,15.431,68.734Z" transform="translate(0 -32)"/>
</svg>
