<svg xmlns="http://www.w3.org/2000/svg" viewBox="0 0 56.944 56.944">
  <defs>
    <style>
      .cls-1 {
        fill: #fff;
      }
    </style>
  </defs>
  <path id="linkedin-brands" class="cls-1" d="M52.877,32H4.055A4.085,4.085,0,0,0,0,36.106V84.838a4.085,4.085,0,0,0,4.055,4.106H52.877a4.1,4.1,0,0,0,4.067-4.106V36.106A4.1,4.1,0,0,0,52.877,32ZM17.21,80.809H8.77V53.634h8.453V80.809ZM12.99,49.922a4.894,4.894,0,1,1,4.894-4.894A4.9,4.9,0,0,1,12.99,49.922ZM48.847,80.809h-8.44V67.59c0-3.152-.064-7.207-4.385-7.207-4.4,0-5.072,3.432-5.072,6.978V80.809h-8.44V53.634h8.1v3.712h.114a8.89,8.89,0,0,1,8-4.385c8.542,0,10.13,5.631,10.13,12.952Z" transform="translate(0 -32)"/>
</svg>
