<svg xmlns="http://www.w3.org/2000/svg" viewBox="0 0 56.944 56.944">
  <defs>
    <style>
      .cls-1 {
        fill: #fff;
      }
    </style>
  </defs>
  <path id="envelope-square-solid" class="cls-1" d="M50.843,32H6.1A6.1,6.1,0,0,0,0,38.1V82.843a6.1,6.1,0,0,0,6.1,6.1H50.843a6.1,6.1,0,0,0,6.1-6.1V38.1A6.1,6.1,0,0,0,50.843,32ZM22.64,61.248c-11.527-8.366-11.41-8.387-14.505-10.8v-3.2A3.051,3.051,0,0,1,11.185,44.2H45.759a3.051,3.051,0,0,1,3.051,3.051v3.2c-3.1,2.411-2.979,2.431-14.505,10.8-1.335.973-3.99,3.32-5.832,3.291C26.629,64.567,23.977,62.223,22.64,61.248Zm26.169-5.635V73.691a3.051,3.051,0,0,1-3.051,3.051H11.185a3.051,3.051,0,0,1-3.051-3.051V55.613c1.774,1.372,4.236,3.208,12.114,8.925,1.8,1.314,4.827,4.086,8.223,4.069,3.418.017,6.487-2.8,8.226-4.071C44.573,58.821,47.035,56.985,48.809,55.613Z" transform="translate(0 -32)"/>
</svg>
