<svg xmlns="http://www.w3.org/2000/svg" viewBox="0 0 56.944 56.944">
  <defs>
    <style>
      .cls-1 {
        fill: #fff;
      }
    </style>
  </defs>
  <path id="facebook-brands" class="cls-1" d="M56.944,35.14V85.792a3.138,3.138,0,0,1-3.14,3.14H39.289V66.891h7.4L47.792,58.3H39.276V52.807c0-2.491.686-4.182,4.258-4.182h4.55v-7.69a61.179,61.179,0,0,0-6.635-.343c-6.559,0-11.058,4-11.058,11.363V58.3H22.968v8.592h7.423V88.944H3.14A3.146,3.146,0,0,1,0,85.8V35.14A3.146,3.146,0,0,1,3.14,32H53.792A3.149,3.149,0,0,1,56.944,35.14Z" transform="translate(0 -32)"/>
</svg>
